<mxfile host="app.diagrams.net" modified="2024-02-20T16:25:03.631Z" agent="Mozilla/5.0 (Windows NT 10.0; Win64; x64) AppleWebKit/537.36 (KHTML, like Gecko) Chrome/121.0.0.0 Safari/537.36 Edg/121.0.0.0" etag="EJ9tDmNVg7EWvavefScT" version="23.1.5" type="github">
  <diagram id="yPxyJZ8AM_hMuL3Unpa9" name="complex gitflow">
    <mxGraphModel dx="1386" dy="785" grid="1" gridSize="10" guides="1" tooltips="1" connect="1" arrows="1" fold="1" page="1" pageScale="1" pageWidth="1100" pageHeight="850" background="#ffffff" math="0" shadow="1">
      <root>
        <mxCell id="0" />
        <mxCell id="1" parent="0" />
        <mxCell id="zV0c77pq8J_n4XPMc49B-12" style="edgeStyle=orthogonalEdgeStyle;rounded=0;orthogonalLoop=1;jettySize=auto;html=1;exitX=0.82;exitY=0.513;exitDx=0;exitDy=0;exitPerimeter=0;" edge="1" parent="1" source="zV0c77pq8J_n4XPMc49B-2" target="zV0c77pq8J_n4XPMc49B-3">
          <mxGeometry relative="1" as="geometry" />
        </mxCell>
        <mxCell id="zV0c77pq8J_n4XPMc49B-2" value="Text &lt;br&gt;Sentiments" style="shape=dataStorage;whiteSpace=wrap;html=1;fixedSize=1;" vertex="1" parent="1">
          <mxGeometry x="50" y="170" width="100" height="80" as="geometry" />
        </mxCell>
        <mxCell id="zV0c77pq8J_n4XPMc49B-3" value="" style="rounded=1;whiteSpace=wrap;html=1;dashed=1;dashPattern=12 12;" vertex="1" parent="1">
          <mxGeometry x="210" y="120" width="230" height="160" as="geometry" />
        </mxCell>
        <mxCell id="zV0c77pq8J_n4XPMc49B-4" value="Token" style="ellipse;whiteSpace=wrap;html=1;aspect=fixed;" vertex="1" parent="1">
          <mxGeometry x="230" y="140" width="50" height="50" as="geometry" />
        </mxCell>
        <mxCell id="zV0c77pq8J_n4XPMc49B-5" value="Lemma" style="ellipse;whiteSpace=wrap;html=1;aspect=fixed;" vertex="1" parent="1">
          <mxGeometry x="300" y="140" width="50" height="50" as="geometry" />
        </mxCell>
        <mxCell id="zV0c77pq8J_n4XPMc49B-6" value="Stem" style="ellipse;whiteSpace=wrap;html=1;aspect=fixed;" vertex="1" parent="1">
          <mxGeometry x="360" y="140" width="50" height="50" as="geometry" />
        </mxCell>
        <mxCell id="zV0c77pq8J_n4XPMc49B-7" value="POS" style="ellipse;whiteSpace=wrap;html=1;aspect=fixed;" vertex="1" parent="1">
          <mxGeometry x="230" y="210" width="50" height="50" as="geometry" />
        </mxCell>
        <mxCell id="zV0c77pq8J_n4XPMc49B-8" value="NER" style="ellipse;whiteSpace=wrap;html=1;aspect=fixed;" vertex="1" parent="1">
          <mxGeometry x="300" y="210" width="50" height="50" as="geometry" />
        </mxCell>
        <mxCell id="zV0c77pq8J_n4XPMc49B-9" value="Stop Word" style="ellipse;whiteSpace=wrap;html=1;aspect=fixed;" vertex="1" parent="1">
          <mxGeometry x="360" y="210" width="50" height="50" as="geometry" />
        </mxCell>
        <mxCell id="zV0c77pq8J_n4XPMc49B-10" value="Pre-processing" style="text;html=1;align=center;verticalAlign=middle;resizable=0;points=[];autosize=1;strokeColor=none;fillColor=none;" vertex="1" parent="1">
          <mxGeometry x="280" y="78" width="100" height="30" as="geometry" />
        </mxCell>
        <mxCell id="zV0c77pq8J_n4XPMc49B-13" value="" style="rounded=1;whiteSpace=wrap;html=1;dashed=1;dashPattern=12 12;" vertex="1" parent="1">
          <mxGeometry x="460" y="120" width="170" height="160" as="geometry" />
        </mxCell>
        <mxCell id="zV0c77pq8J_n4XPMc49B-14" value="One Hot encoding" style="ellipse;whiteSpace=wrap;html=1;aspect=fixed;" vertex="1" parent="1">
          <mxGeometry x="480" y="140" width="60" height="60" as="geometry" />
        </mxCell>
        <mxCell id="zV0c77pq8J_n4XPMc49B-16" value="TFIDF" style="ellipse;whiteSpace=wrap;html=1;aspect=fixed;" vertex="1" parent="1">
          <mxGeometry x="555" y="145" width="50" height="50" as="geometry" />
        </mxCell>
        <mxCell id="zV0c77pq8J_n4XPMc49B-18" value="Count" style="ellipse;whiteSpace=wrap;html=1;aspect=fixed;" vertex="1" parent="1">
          <mxGeometry x="485" y="210" width="50" height="50" as="geometry" />
        </mxCell>
        <mxCell id="zV0c77pq8J_n4XPMc49B-20" value="Feature Extraction" style="text;html=1;align=center;verticalAlign=middle;resizable=0;points=[];autosize=1;strokeColor=none;fillColor=none;" vertex="1" parent="1">
          <mxGeometry x="490" y="78" width="120" height="30" as="geometry" />
        </mxCell>
        <mxCell id="zV0c77pq8J_n4XPMc49B-21" value="" style="endArrow=classic;html=1;rounded=0;exitX=1;exitY=0.5;exitDx=0;exitDy=0;" edge="1" parent="1" source="zV0c77pq8J_n4XPMc49B-3">
          <mxGeometry width="50" height="50" relative="1" as="geometry">
            <mxPoint x="520" y="430" as="sourcePoint" />
            <mxPoint x="460" y="200" as="targetPoint" />
          </mxGeometry>
        </mxCell>
        <mxCell id="zV0c77pq8J_n4XPMc49B-22" value="" style="rounded=1;whiteSpace=wrap;html=1;dashed=1;dashPattern=12 12;" vertex="1" parent="1">
          <mxGeometry x="650" y="120" width="180" height="160" as="geometry" />
        </mxCell>
        <mxCell id="zV0c77pq8J_n4XPMc49B-23" value="Modelling" style="text;html=1;align=center;verticalAlign=middle;resizable=0;points=[];autosize=1;strokeColor=none;fillColor=none;" vertex="1" parent="1">
          <mxGeometry x="705" y="78" width="70" height="30" as="geometry" />
        </mxCell>
        <mxCell id="zV0c77pq8J_n4XPMc49B-24" value="Naive Bayes" style="ellipse;whiteSpace=wrap;html=1;aspect=fixed;" vertex="1" parent="1">
          <mxGeometry x="670" y="135" width="60" height="60" as="geometry" />
        </mxCell>
        <mxCell id="zV0c77pq8J_n4XPMc49B-25" value="SVM" style="ellipse;whiteSpace=wrap;html=1;aspect=fixed;" vertex="1" parent="1">
          <mxGeometry x="740" y="135" width="60" height="60" as="geometry" />
        </mxCell>
        <mxCell id="zV0c77pq8J_n4XPMc49B-26" value="logistic regresssion" style="ellipse;whiteSpace=wrap;html=1;aspect=fixed;" vertex="1" parent="1">
          <mxGeometry x="710" y="200" width="70" height="70" as="geometry" />
        </mxCell>
        <mxCell id="zV0c77pq8J_n4XPMc49B-27" value="Sentiments" style="rhombus;whiteSpace=wrap;html=1;" vertex="1" parent="1">
          <mxGeometry x="860" y="160" width="80" height="80" as="geometry" />
        </mxCell>
        <mxCell id="zV0c77pq8J_n4XPMc49B-29" value="" style="shape=hexagon;perimeter=hexagonPerimeter2;whiteSpace=wrap;html=1;fixedSize=1;" vertex="1" parent="1">
          <mxGeometry x="960" y="118" width="100" height="52" as="geometry" />
        </mxCell>
        <mxCell id="zV0c77pq8J_n4XPMc49B-28" value="Postive" style="text;html=1;align=center;verticalAlign=middle;resizable=0;points=[];autosize=1;strokeColor=none;fillColor=none;" vertex="1" parent="1">
          <mxGeometry x="980" y="130" width="60" height="30" as="geometry" />
        </mxCell>
        <mxCell id="zV0c77pq8J_n4XPMc49B-30" value="" style="shape=hexagon;perimeter=hexagonPerimeter2;whiteSpace=wrap;html=1;fixedSize=1;" vertex="1" parent="1">
          <mxGeometry x="960" y="184" width="100" height="52" as="geometry" />
        </mxCell>
        <mxCell id="zV0c77pq8J_n4XPMc49B-31" value="Negative" style="text;html=1;align=center;verticalAlign=middle;resizable=0;points=[];autosize=1;strokeColor=none;fillColor=none;" vertex="1" parent="1">
          <mxGeometry x="975" y="196" width="70" height="30" as="geometry" />
        </mxCell>
        <mxCell id="zV0c77pq8J_n4XPMc49B-33" value="" style="shape=hexagon;perimeter=hexagonPerimeter2;whiteSpace=wrap;html=1;fixedSize=1;" vertex="1" parent="1">
          <mxGeometry x="960" y="240" width="100" height="52" as="geometry" />
        </mxCell>
        <mxCell id="zV0c77pq8J_n4XPMc49B-34" value="Neutral" style="text;html=1;align=center;verticalAlign=middle;resizable=0;points=[];autosize=1;strokeColor=none;fillColor=none;" vertex="1" parent="1">
          <mxGeometry x="980" y="252" width="60" height="30" as="geometry" />
        </mxCell>
        <mxCell id="zV0c77pq8J_n4XPMc49B-38" value="" style="endArrow=classic;html=1;rounded=0;exitX=1;exitY=0.5;exitDx=0;exitDy=0;entryX=0;entryY=0.5;entryDx=0;entryDy=0;" edge="1" parent="1" source="zV0c77pq8J_n4XPMc49B-13" target="zV0c77pq8J_n4XPMc49B-22">
          <mxGeometry width="50" height="50" relative="1" as="geometry">
            <mxPoint x="520" y="370" as="sourcePoint" />
            <mxPoint x="570" y="320" as="targetPoint" />
          </mxGeometry>
        </mxCell>
        <mxCell id="zV0c77pq8J_n4XPMc49B-39" value="" style="endArrow=classic;html=1;rounded=0;exitX=1.039;exitY=0.55;exitDx=0;exitDy=0;exitPerimeter=0;entryX=0;entryY=0.5;entryDx=0;entryDy=0;" edge="1" parent="1" source="zV0c77pq8J_n4XPMc49B-22" target="zV0c77pq8J_n4XPMc49B-27">
          <mxGeometry width="50" height="50" relative="1" as="geometry">
            <mxPoint x="520" y="370" as="sourcePoint" />
            <mxPoint x="570" y="320" as="targetPoint" />
          </mxGeometry>
        </mxCell>
        <mxCell id="zV0c77pq8J_n4XPMc49B-40" value="" style="endArrow=classic;html=1;rounded=0;exitX=1;exitY=0.5;exitDx=0;exitDy=0;entryX=0;entryY=0.5;entryDx=0;entryDy=0;" edge="1" parent="1" source="zV0c77pq8J_n4XPMc49B-27" target="zV0c77pq8J_n4XPMc49B-29">
          <mxGeometry width="50" height="50" relative="1" as="geometry">
            <mxPoint x="520" y="370" as="sourcePoint" />
            <mxPoint x="570" y="320" as="targetPoint" />
          </mxGeometry>
        </mxCell>
        <mxCell id="zV0c77pq8J_n4XPMc49B-41" value="" style="endArrow=classic;html=1;rounded=0;entryX=0;entryY=0.5;entryDx=0;entryDy=0;" edge="1" parent="1" target="zV0c77pq8J_n4XPMc49B-33">
          <mxGeometry width="50" height="50" relative="1" as="geometry">
            <mxPoint x="940" y="200" as="sourcePoint" />
            <mxPoint x="990" y="150" as="targetPoint" />
          </mxGeometry>
        </mxCell>
        <mxCell id="zV0c77pq8J_n4XPMc49B-42" value="" style="endArrow=classic;html=1;rounded=0;entryX=0;entryY=0.5;entryDx=0;entryDy=0;" edge="1" parent="1" target="zV0c77pq8J_n4XPMc49B-30">
          <mxGeometry width="50" height="50" relative="1" as="geometry">
            <mxPoint x="940" y="200" as="sourcePoint" />
            <mxPoint x="760" y="485" as="targetPoint" />
          </mxGeometry>
        </mxCell>
      </root>
    </mxGraphModel>
  </diagram>
</mxfile>
